<?xml version="1.0" encoding="UTF-8" standalone="no"?>
<svg
   xmlns:dc="http://purl.org/dc/elements/1.1/"
   xmlns:cc="http://creativecommons.org/ns#"
   xmlns:rdf="http://www.w3.org/1999/02/22-rdf-syntax-ns#"
   xmlns:svg="http://www.w3.org/2000/svg"
   xmlns="http://www.w3.org/2000/svg"
   xmlns:sodipodi="http://sodipodi.sourceforge.net/DTD/sodipodi-0.dtd"
   xmlns:inkscape="http://www.inkscape.org/namespaces/inkscape"
   width="77.508003mm"
   height="77.508003mm"
   viewBox="0 0 77.508003 77.508003"
   version="1.1"
   id="svg8"
   inkscape:version="1.0.1 (3bc2e813f5, 2020-09-07)"
   sodipodi:docname="blogkita.svg">
  <defs
     id="defs2" />
  <sodipodi:namedview
     id="base"
     pagecolor="#393939"
     bordercolor="#666666"
     borderopacity="1.0"
     inkscape:pageopacity="0"
     inkscape:pageshadow="2"
     inkscape:zoom="0.7"
     inkscape:cx="314.58074"
     inkscape:cy="378.06429"
     inkscape:document-units="mm"
     inkscape:current-layer="layer1"
     inkscape:document-rotation="0"
     showgrid="false"
     fit-margin-top="0"
     fit-margin-left="0"
     fit-margin-right="0"
     fit-margin-bottom="0"
     inkscape:showpageshadow="false"
     inkscape:window-width="1824"
     inkscape:window-height="997"
     inkscape:window-x="-9"
     inkscape:window-y="-9"
     inkscape:window-maximized="1" />
  <metadata
     id="metadata5">
    <rdf:RDF>
      <cc:Work
         rdf:about="">
        <dc:format>image/svg+xml</dc:format>
        <dc:type
           rdf:resource="http://purl.org/dc/dcmitype/StillImage" />
        <dc:title />
      </cc:Work>
    </rdf:RDF>
  </metadata>
  <g
     inkscape:label="Layer 1"
     inkscape:groupmode="layer"
     id="layer1"
     transform="translate(245.68451,-56.696411)">
    <rect
       style="fill:#ffffff;fill-opacity:1;stroke:none;stroke-width:33.721;stroke-linejoin:bevel;stroke-miterlimit:1.5;paint-order:fill markers stroke"
       id="rect896"
       width="77.508163"
       height="77.508163"
       x="-245.68451"
       y="56.696411" />
    <circle
       style="fill:#d0d0d0;fill-opacity:1;stroke-width:10;stroke-linejoin:bevel;stroke-miterlimit:1.5;paint-order:fill markers stroke"
       id="circle866"
       cx="-218.60045"
       cy="95.497734"
       r="18.709822" />
    <circle
       style="fill:#b6c4c5;fill-opacity:1;stroke-width:10;stroke-linejoin:bevel;stroke-miterlimit:1.5;paint-order:fill markers stroke"
       id="circle868"
       cx="-195.26042"
       cy="95.403244"
       r="18.709822" />
    <path
       id="path862"
       style="fill:#5e5e5e;fill-opacity:1;stroke-width:10;stroke-linejoin:bevel;stroke-miterlimit:1.5;paint-order:fill markers stroke"
       d="m -206.98927,80.826581 a 18.709822,18.709822 0 0 0 -6.98097,14.57637 18.709822,18.709822 0 0 0 7.0988,14.671459 18.709822,18.709822 0 0 0 6.98096,-14.576889 18.709822,18.709822 0 0 0 -7.09879,-14.67094 z" />
    <path
       d="m -241.25194,100.54058 v -0.36544 q 0.4624,-0.11933 0.61902,-0.261032 0.15661,-0.14916 0.20136,-0.417648 0.0522,-0.268489 0.0522,-0.820381 v -6.451177 q 0,-0.514603 -0.0373,-0.745801 -0.0373,-0.238656 -0.12679,-0.365442 -0.082,-0.134244 -0.22374,-0.208824 -0.1417,-0.08204 -0.48477,-0.178993 V 90.3604 h 4.07953 q 1.18582,0 1.90179,0.253572 0.72343,0.253573 1.07396,0.753259 0.35052,0.492229 0.35052,1.275319 0,0.648847 -0.25357,1.12616 -0.24611,0.477312 -0.64885,0.790548 -0.40273,0.313237 -1.03666,0.581725 v 0.06712 q 1.01429,0.305778 1.53635,0.947167 0.52206,0.633931 0.52206,1.513976 0,1.014289 -0.45494,1.655677 -0.44748,0.641389 -1.2604,0.932257 -0.81292,0.2834 -1.96891,0.2834 z m 3.57239,-5.615879 q 1.13361,0 1.73025,-0.544435 0.6041,-0.551892 0.6041,-1.596013 0,-0.514603 -0.17153,-0.850213 -0.16408,-0.343069 -0.4624,-0.544435 -0.29086,-0.201366 -0.69359,-0.283404 -0.40273,-0.0895 -0.87259,-0.0895 -0.2834,0 -0.7458,0.01492 -0.4624,0.01492 -0.69359,0.02983 v 3.863248 z m -1.30515,4.907369 q 0.54443,0.05221 1.21565,0.05221 0.977,0 1.51398,-0.246114 0.54443,-0.246114 0.78309,-0.723427 0.24611,-0.48477 0.24611,-1.208197 0,-0.723427 -0.26849,-1.193282 -0.26103,-0.469854 -0.81292,-0.701052 -0.55189,-0.231199 -1.52143,-0.231199 h -1.15599 z"
       style="font-style:normal;font-variant:normal;font-weight:normal;font-stretch:normal;font-size:15.274px;line-height:1.25;font-family:Cambria;-inkscape-font-specification:Cambria;letter-spacing:-0.291856px;word-spacing:0px;fill:#1a1a1a;fill-opacity:1;stroke:none;stroke-width:0.715968"
       id="path856" />
    <path
       d="m -229.93913,99.854444 h 1.95399 q 0.3207,0 0.53698,-0.03729 0.21628,-0.03729 0.36544,-0.11187 0.15662,-0.08204 0.27595,-0.216282 0.12679,-0.141703 0.23866,-0.365443 0.11187,-0.22374 0.20882,-0.55935 0.10441,-0.343069 0.25357,-1.021747 h 0.75326 l -0.14916,2.998118 h -6.70475 v -0.36544 q 0.4624,-0.11933 0.61902,-0.261032 0.15661,-0.14916 0.20136,-0.417648 0.0522,-0.268489 0.0522,-0.820381 v -6.451177 q 0,-0.514603 -0.0373,-0.745801 -0.0373,-0.238656 -0.12679,-0.365442 -0.082,-0.134244 -0.22374,-0.208824 -0.1417,-0.08204 -0.48477,-0.178993 V 90.3604 h 3.13982 v 0.365442 q -0.32815,0.0895 -0.46985,0.164077 -0.13425,0.06712 -0.22374,0.18645 -0.0895,0.119328 -0.13425,0.365442 -0.0447,0.246114 -0.0447,0.783091 z"
       style="font-style:normal;font-variant:normal;font-weight:normal;font-stretch:normal;font-size:15.274px;line-height:1.25;font-family:Cambria;-inkscape-font-specification:Cambria;letter-spacing:-0.291856px;word-spacing:0px;fill:#1a1a1a;fill-opacity:1;stroke:none;stroke-width:0.715968"
       id="path858" />
    <path
       d="m -220.43863,100.65991 q -0.89496,0 -1.6333,-0.29086 -0.73089,-0.29832 -1.2604,-0.917338 -0.52206,-0.626473 -0.81293,-1.596014 -0.2834,-0.969541 -0.2834,-2.319441 0,-1.663135 0.50714,-2.856417 0.50715,-1.193281 1.44686,-1.812295 0.94716,-0.626473 2.19265,-0.626473 1.32753,0 2.22995,0.589182 0.90987,0.581725 1.36481,1.7228 0.4624,1.133617 0.4624,2.766921 0,1.745174 -0.52206,2.945913 -0.52206,1.20074 -1.47669,1.797382 -0.94717,0.59664 -2.21503,0.59664 z m -2.45368,-5.332477 q 0,2.289609 0.66376,3.48289 0.67122,1.193277 1.954,1.193277 0.81292,0 1.37973,-0.514598 0.56681,-0.522061 0.85021,-1.521434 0.28341,-0.999373 0.28341,-2.334356 0,-1.625846 -0.33561,-2.692341 -0.32815,-1.073953 -0.90242,-1.558724 -0.57427,-0.48477 -1.33498,-0.48477 -0.67123,0 -1.156,0.313236 -0.47731,0.313236 -0.798,0.894961 -0.31324,0.574266 -0.4624,1.394647 -0.1417,0.820381 -0.1417,1.827212 z"
       style="font-style:normal;font-variant:normal;font-weight:normal;font-stretch:normal;font-size:15.274px;line-height:1.25;font-family:Cambria;-inkscape-font-specification:Cambria;letter-spacing:-0.291856px;word-spacing:0px;fill:#1a1a1a;fill-opacity:1;stroke:none;stroke-width:0.715968"
       id="path860" />
    <path
       d="m -207.58947,100.50329 -0.58173,0.15662 -0.54443,-0.58173 q -0.48477,0.29832 -1.01429,0.44003 -0.52952,0.1417 -1.21566,0.1417 -1.88687,0 -2.8415,-1.290236 -0.95462,-1.297694 -0.95462,-3.848333 0,-1.588555 0.52206,-2.789295 0.52206,-1.200739 1.49906,-1.842127 0.977,-0.648847 2.29706,-0.648847 0.6936,0 1.33499,0.08204 0.64139,0.07458 1.42448,0.268488 v 2.050952 h -0.73835 q -0.20136,-0.67122 -0.47731,-1.044121 -0.27594,-0.380358 -0.66376,-0.536976 -0.38036,-0.164076 -0.96954,-0.164076 -0.81293,0 -1.42448,0.52206 -0.61156,0.522061 -0.95463,1.543808 -0.33561,1.014289 -0.33561,2.453684 0,1.46177 0.28341,2.498433 0.29086,1.036663 0.85767,1.566182 0.56681,0.522054 1.39465,0.522054 0.88004,0 1.30515,-0.380352 0.4251,-0.387817 0.4251,-1.185823 v -0.447481 q 0,-0.671221 -0.0746,-0.969541 -0.0671,-0.29832 -0.24611,-0.462396 -0.17899,-0.164077 -0.58918,-0.268489 v -0.365442 h 3.01303 v 0.365442 q -0.26849,0.0895 -0.40273,0.208824 -0.13424,0.111871 -0.20883,0.283405 -0.0671,0.171534 -0.097,0.425106 -0.0224,0.246114 -0.0224,0.708511 z"
       style="font-style:normal;font-variant:normal;font-weight:normal;font-stretch:normal;font-size:15.274px;line-height:1.25;font-family:Cambria;-inkscape-font-specification:Cambria;letter-spacing:-0.291856px;word-spacing:0px;fill:#1a1a1a;fill-opacity:1;stroke:none;stroke-width:0.715968"
       id="path863" />
    <path
       d="m -200.35719,94.961991 h 0.22374 q 0.2834,0 0.5146,-0.0895 0.23866,-0.0895 0.52952,-0.335611 0.29086,-0.246114 0.8875,-0.917335 0.71597,-0.798006 0.977,-1.155991 0.32815,-0.425106 0.44002,-0.715969 0.0895,-0.216282 0.0895,-0.417648 0,-0.29832 -0.17153,-0.432564 -0.17154,-0.141703 -0.46986,-0.171535 V 90.3604 h 3.25169 v 0.365442 q -0.23865,0.05221 -0.46985,0.186451 -0.2312,0.126786 -0.47731,0.357984 -0.23866,0.22374 -0.70851,0.745801 l -2.50589,2.819127 2.71471,3.945286 q 0.43256,0.626473 0.67868,0.880045 0.24611,0.246114 0.46985,0.365444 0.22374,0.11187 0.47732,0.14916 v 0.36544 h -3.28899 v -0.36544 q 0.27595,-0.0224 0.40274,-0.10441 0.12678,-0.08204 0.12678,-0.246118 0,-0.134244 -0.0895,-0.320694 -0.082,-0.193909 -0.26849,-0.462397 l -1.73772,-2.587929 q -0.30578,-0.462396 -0.44748,-0.611556 -0.1417,-0.14916 -0.30578,-0.216282 -0.16407,-0.07458 -0.44002,-0.07458 h -0.39527 v 3.124906 q 0,0.499686 0.0298,0.730885 0.0373,0.231198 0.11187,0.365442 0.082,0.134244 0.2312,0.22374 0.15662,0.08949 0.49968,0.178993 v 0.36544 h -3.13982 v -0.36544 q 0.4624,-0.11933 0.61902,-0.261031 0.15662,-0.14916 0.20136,-0.417648 0.0522,-0.268489 0.0522,-0.820381 v -6.451177 q 0,-0.514603 -0.0373,-0.745801 -0.0373,-0.238656 -0.12679,-0.365442 -0.082,-0.134244 -0.22374,-0.208824 -0.1417,-0.08204 -0.48477,-0.178993 V 90.3604 h 3.13982 v 0.365442 q -0.32815,0.08204 -0.47731,0.164077 -0.1417,0.08204 -0.2312,0.208824 -0.082,0.119328 -0.12678,0.365442 -0.0373,0.246114 -0.0373,0.760717 z"
       style="font-style:normal;font-variant:normal;font-weight:normal;font-stretch:normal;font-size:15.274px;line-height:1.25;font-family:Cambria;-inkscape-font-specification:Cambria;letter-spacing:-0.291856px;word-spacing:0px;fill:#1a1a1a;fill-opacity:1;stroke:none;stroke-width:0.715968"
       id="path865" />
    <path
       d="m -191.02076,98.676079 q 0,0.499686 0.0298,0.730885 0.0373,0.231198 0.11187,0.365442 0.082,0.134244 0.2312,0.22374 0.15662,0.08949 0.49969,0.178994 v 0.36544 h -3.14728 v -0.36544 q 0.46239,-0.11933 0.61901,-0.261032 0.15662,-0.14916 0.20137,-0.417648 0.0522,-0.268489 0.0522,-0.820381 v -6.451177 q 0,-0.514603 -0.0373,-0.745801 -0.0373,-0.238656 -0.12678,-0.365442 -0.082,-0.134244 -0.22374,-0.208824 -0.1417,-0.08204 -0.48477,-0.178993 V 90.3604 h 3.14728 v 0.365442 q -0.32816,0.08204 -0.47732,0.164077 -0.1417,0.08204 -0.23119,0.208824 -0.082,0.119328 -0.12679,0.365442 -0.0373,0.246114 -0.0373,0.760717 z"
       style="font-style:normal;font-variant:normal;font-weight:normal;font-stretch:normal;font-size:15.274px;line-height:1.25;font-family:Cambria;-inkscape-font-specification:Cambria;letter-spacing:-0.291856px;word-spacing:0px;fill:#1a1a1a;fill-opacity:1;stroke:none;stroke-width:0.715968"
       id="path867" />
    <path
       d="m -189.04538,90.3604 h 8.06956 v 2.595387 h -0.73088 q -0.16408,-0.641389 -0.32815,-1.014289 -0.15662,-0.372901 -0.33561,-0.566809 -0.179,-0.193908 -0.38782,-0.275946 -0.20137,-0.08204 -0.61156,-0.08204 h -0.94716 v 7.637 q 0,0.440022 0.0447,0.701052 0.0522,0.261031 0.14916,0.417649 0.10442,0.14916 0.27595,0.238656 0.17154,0.082 0.53698,0.16408 v 0.36544 h -3.40831 v -0.36544 q 0.22374,-0.0522 0.39527,-0.11187 0.17154,-0.0597 0.27595,-0.141706 0.11187,-0.0895 0.17899,-0.22374 0.0746,-0.134244 0.11187,-0.365443 0.0448,-0.231198 0.0448,-0.678678 v -7.637 h -0.93971 q -0.35053,0 -0.58172,0.06712 -0.22374,0.06712 -0.41765,0.283404 -0.19391,0.208824 -0.35799,0.604099 -0.15662,0.387816 -0.29832,0.984457 h -0.73834 z"
       style="font-style:normal;font-variant:normal;font-weight:normal;font-stretch:normal;font-size:15.274px;line-height:1.25;font-family:Cambria;-inkscape-font-specification:Cambria;letter-spacing:-0.291856px;word-spacing:0px;fill:#1a1a1a;fill-opacity:1;stroke:none;stroke-width:0.715968"
       id="path869" />
    <path
       d="m -176.04707,100.54058 v -0.36544 q 0.3729,-0.0746 0.55189,-0.16408 0.18645,-0.08949 0.27595,-0.246112 0.0895,-0.164076 0.0895,-0.432565 0,-0.253572 -0.0597,-0.544434 -0.0597,-0.29832 -0.17153,-0.663763 l -0.27595,-0.962083 h -3.47543 l -0.25357,0.730885 q -0.19391,0.551893 -0.25357,0.835297 -0.0597,0.283404 -0.0597,0.514602 0,0.447481 0.22374,0.656305 0.2312,0.208828 0.70105,0.275948 v 0.36544 h -3.18456 v -0.36544 q 0.41764,-0.0671 0.72342,-0.484772 0.31324,-0.417649 0.6041,-1.193281 l 3.10999,-8.256015 h 1.17837 l 2.53572,8.315679 q 0.17899,0.581724 0.31323,0.887503 0.14171,0.305778 0.33561,0.477312 0.19391,0.171534 0.52952,0.253574 v 0.36544 z m -2.86387,-4.027324 h 3.11744 l -1.41702,-4.810415 z"
       style="font-style:normal;font-variant:normal;font-weight:normal;font-stretch:normal;font-size:15.274px;line-height:1.25;font-family:Cambria;-inkscape-font-specification:Cambria;letter-spacing:-0.291856px;word-spacing:0px;fill:#1a1a1a;fill-opacity:1;stroke:none;stroke-width:0.715968"
       id="path871" />
  </g>
  <g
     inkscape:groupmode="layer"
     id="layer2"
     inkscape:label="Canvas"
     transform="translate(180,-179.99998)" />
</svg>
